<svg id="Capa_1" enable-background="new 0 0 512 512" height="512" viewBox="0 0 512 512" width="512" xmlns="http://www.w3.org/2000/svg"><path d="m512 355.763c0-24.511-17.912-44.906-41.33-48.814-2.849-52.587-24.675-101.626-62.202-139.154-29.161-29.16-65.273-48.839-104.598-57.505l17.56-25.844-31.444-43.709h-67.971l-31.445 43.709 17.965 26.44c-16.197 3.783-31.833 9.432-46.639 16.861h-120.896v30h76.298c-3.682 3.215-7.277 6.559-10.766 10.048-5.853 5.853-11.312 11.994-16.389 18.376h-90.143v30h70.169c-5.029 9.153-9.364 18.648-12.977 28.424h-34.192v30h25.562c-2.186 10.448-3.599 21.115-4.207 31.934-24.885 2.583-44.355 23.676-44.355 49.234v43h36.088c-2.965 6.479-4.632 13.671-4.632 21.25 0 28.259 22.99 51.25 51.25 51.25s51.25-22.991 51.25-51.25c0-7.579-1.667-14.771-4.632-21.25h253.351c-2.965 6.479-4.632 13.671-4.632 21.25 0 28.259 22.99 51.25 51.25 51.25s51.25-22.991 51.25-51.25c0-7.579-1.667-14.771-4.632-21.25h36.089zm-284.826-270.825 10.216-14.2h37.221l10.216 14.2-14.093 20.742c-4.388-.267-8.799-.417-13.233-.417-5.404 0-10.776.201-16.111.597zm30.326 50.325c96.981 0 176.617 75.626 183.065 171h-366.13c6.448-95.374 86.084-171 183.065-171zm-153.544 284.75c0 11.717-9.533 21.25-21.25 21.25s-21.25-9.533-21.25-21.25 9.533-21.25 21.25-21.25 21.25 9.532 21.25 21.25zm346.588 0c0 11.717-9.533 21.25-21.25 21.25s-21.25-9.533-21.25-21.25 9.533-21.25 21.25-21.25 21.25 9.532 21.25 21.25zm31.456-51.25h-452v-13c0-10.752 8.748-19.5 19.5-19.5h413c10.752 0 19.5 8.748 19.5 19.5z"/></svg>